<?xml version="1.0" standalone="no"?>
<!DOCTYPE svg PUBLIC "-//W3C//DTD SVG 20010904//EN"
 "http://www.w3.org/TR/2001/REC-SVG-20010904/DTD/svg10.dtd">
<svg version="1.0" xmlns="http://www.w3.org/2000/svg"
 width="249.000000pt" height="249.000000pt" viewBox="0 0 249.000000 249.000000"
 preserveAspectRatio="xMidYMid meet">
<metadata>
Created by potrace 1.14, written by Peter Selinger 2001-2017
</metadata>
<g transform="translate(0.000000,249.000000) scale(0.100000,-0.100000)"
fill="#000000" stroke="none">
<path d="M1118 2485 c-2 -1 -24 -5 -51 -8 -86 -11 -220 -49 -317 -91 -335
-146 -588 -429 -694 -776 -26 -86 -31 -112 -46 -210 -10 -73 -5 -301 9 -370 6
-30 13 -64 15 -75 2 -11 16 -56 30 -100 124 -389 464 -709 866 -814 117 -31
164 -36 335 -35 139 1 174 5 266 28 231 58 418 161 580 319 77 76 169 187 169
205 0 6 3 12 7 14 38 17 162 313 179 428 3 19 8 42 11 50 12 33 10 317 -3 395
-57 334 -252 639 -527 827 -65 44 -227 131 -227 122 0 -4 -6 -2 -12 3 -7 6
-42 20 -78 31 -59 19 -86 26 -185 47 -31 7 -321 16 -327 10z"/>
</g>
</svg>
